<svg xmlns="http://www.w3.org/2000/svg" viewBox="0 0 36.012 37.096"><path fill="#1e524d" d="M32.557 13.274c.062.142.122.285.18.429l2.08-.834c-.054-.146-.11-.29-.168-.434l1.363-.547C33.009 4.896 26.061 0 17.969 0v4.564c6.125 0 11.368 3.783 13.519 9.139l1.069-.429z"/><path fill="#e59500" d="M3.405 19.128c0-8.043 6.52-14.564 14.564-14.564V1.159C8.045 1.159 0 9.204 0 19.128h3.405zm28.083-5.425a14.535 14.535 0 0 1 1.044 5.425c0 1.667-.281 3.27-.797 4.762l3.22 1.113c.636-1.841.982-3.818.982-5.875a17.91 17.91 0 0 0-1.288-6.693l-3.161 1.268z"/><path fill="#e59500" d="M17.969 33.691c-8.044 0-14.564-6.52-14.564-14.563H0c0 9.923 8.045 17.968 17.969 17.968 7.866 0 14.551-5.054 16.986-12.093l-3.22-1.113c-1.973 5.704-7.391 9.801-13.766 9.801z"/><path fill="#1e524d" d="M17.969 6.971c6.713 0 12.156 5.443 12.156 12.157s-5.443 12.156-12.156 12.156c-6.714 0-12.157-5.442-12.157-12.156S11.255 6.971 17.969 6.971z"/></svg>